<svg xmlns="http://www.w3.org/2000/svg" width="60" height="60" viewBox="0 0 60 60">
    <g fill="none" fill-rule="evenodd">
        <circle cx="30" cy="30" r="30" fill="#EA002A"/>
        <path fill="#FEFEFE" d="M31 44a1 1 0 1 1-2 0 1 1 0 0 1 2 0"/>
        <path stroke="#FEFEFE" stroke-width="1.7" d="M41.16 48.495c-7.153.673-14.167.673-21.32 0a203.933 203.933 0 0 1 0-36.99 112.815 112.815 0 0 1 21.32 0 203.933 203.933 0 0 1 0 36.99z"/>
        <path stroke="#FEFEFE" stroke-width="1.7" d="M37.444 41.686c-5.067.419-8.821.419-13.888 0-.741-8.175-.741-16.198 0-24.372 5.066-.419 8.822-.419 13.888 0 .741 8.174.741 16.197 0 24.372z"/>
    </g>
</svg>