<svg xmlns="http://www.w3.org/2000/svg" width="60" height="60" viewBox="0 0 60 60">
    <g fill="none" fill-rule="evenodd">
        <circle cx="30" cy="30" r="30" fill="#EA002A"/>
        <g fill="#FFF" fill-rule="nonzero">
            <path d="M30.49 11c-10.759 0-19.511 8.747-19.51 19.445-.008.17-.106 3.001.7 6.051l-2.627-1.531a1.365 1.365 0 0 0-1.375 2.357l6.158 3.588c.013.007.026.009.038.015.066.035.133.061.204.085.048.017.094.035.143.046.058.013.117.017.177.023.042.004.084.017.126.017.024 0 .046-.008.07-.01.023 0 .043.005.066.003.034-.003.064-.018.098-.023a1.338 1.338 0 0 0 .51-.201 1.359 1.359 0 0 0 .27-.234c.04-.044.075-.09.108-.138.018-.027.043-.047.059-.075.012-.02.012-.045.022-.066.018-.037.047-.07.063-.11l2.45-6.063a1.364 1.364 0 1 0-2.53-1.022l-1.258 3.114c-.84-2.807-.744-5.691-.741-5.77 0-9.248 7.528-16.772 16.779-16.772 9.252 0 16.779 7.524 16.779 16.772 0 9.246-7.527 16.77-16.78 16.77a1.365 1.365 0 1 0 0 2.729C41.25 50 50 41.253 50 30.5 49.999 19.748 41.247 11 30.49 11z"/>
            <path d="M29.682 34.887c.137.061.28.083.426.094.03.002.06.019.09.019.158 0 .312-.039.459-.097.04-.016.08-.039.119-.06.112-.057.215-.131.31-.221.021-.02.049-.027.07-.05l8.447-9.087a1.534 1.534 0 0 0 0-2.058 1.286 1.286 0 0 0-1.913 0l-7.807 8.397-7.006-3.156c-.693-.312-1.482.038-1.772.78-.288.741.037 1.594.725 1.905l7.844 3.533.008.001z"/>
        </g>
    </g>
</svg>